<?xml version="1.0" encoding="UTF-8" standalone="no"?>
<!DOCTYPE svg PUBLIC "-//W3C//DTD SVG 1.1//EN"
 "http://www.w3.org/Graphics/SVG/1.1/DTD/svg11.dtd">
<!-- Generated by graphviz version 13.0.0 (20250608.1624)
 -->
<!-- Pages: 1 -->
<svg width="6159pt" height="633pt"
 viewBox="0.00 0.00 6159.00 633.00" xmlns="http://www.w3.org/2000/svg" xmlns:xlink="http://www.w3.org/1999/xlink">
<g id="graph0" class="graph" transform="scale(4.16667 4.16667) rotate(0) translate(4 148)">
<polygon fill="white" stroke="none" points="-4,4 -4,-148 1474.26,-148 1474.26,4 -4,4"/>
<!-- n0 -->
<g id="node1" class="node">
<title>n0</title>
<ellipse fill="none" stroke="black" cx="46.75" cy="-45" rx="46.75" ry="18"/>
<text xml:space="preserve" text-anchor="middle" x="46.75" y="-39.95" font-family="Times New Roman,serif" font-size="14.00">Dev&#45;C++</text>
</g>
<!-- n1 -->
<g id="node2" class="node">
<title>n1</title>
<ellipse fill="none" stroke="black" cx="175.72" cy="-72" rx="46.23" ry="18"/>
<text xml:space="preserve" text-anchor="middle" x="175.72" y="-66.95" font-family="Times New Roman,serif" font-size="14.00">PERSON</text>
</g>
<!-- n0&#45;&gt;n1 -->
<g id="edge1" class="edge">
<title>n0&#45;&gt;n1</title>
<path fill="none" stroke="black" d="M88.27,-53.62C99.49,-56 111.82,-58.62 123.56,-61.12"/>
<polygon fill="black" stroke="black" points="122.59,-64.49 133.1,-63.15 124.05,-57.65 122.59,-64.49"/>
</g>
<!-- n4 -->
<g id="node5" class="node">
<title>n4</title>
<ellipse fill="none" stroke="black" cx="175.72" cy="-18" rx="30.37" ry="18"/>
<text xml:space="preserve" text-anchor="middle" x="175.72" y="-12.95" font-family="Times New Roman,serif" font-size="14.00">ORG</text>
</g>
<!-- n0&#45;&gt;n4 -->
<g id="edge4" class="edge">
<title>n0&#45;&gt;n4</title>
<path fill="none" stroke="black" d="M88.27,-36.38C103.42,-33.16 120.59,-29.51 135.62,-26.32"/>
<polygon fill="black" stroke="black" points="136.08,-29.79 145.14,-24.29 134.63,-22.95 136.08,-29.79"/>
</g>
<!-- n2 -->
<g id="node3" class="node">
<title>n2</title>
<ellipse fill="none" stroke="black" cx="864.11" cy="-126" rx="606.15" ry="18"/>
<text xml:space="preserve" text-anchor="middle" x="864.11" y="-120.95" font-family="Times New Roman,serif" font-size="14.00">Dev&#45;C++ is a free full&#45;featured integrated development environment (IDE) distributed under the GNU General Public License for programming in C and C++.</text>
</g>
<!-- n1&#45;&gt;n2 -->
<g id="edge2" class="edge">
<title>n1&#45;&gt;n2</title>
<path fill="none" stroke="black" d="M208.6,-84.86C223.37,-90.23 241.3,-95.92 257.96,-99 290.62,-105.04 324.43,-109.99 358.61,-114.05"/>
<polygon fill="black" stroke="black" points="357.88,-117.49 368.22,-115.16 358.69,-110.53 357.88,-117.49"/>
</g>
<!-- n3 -->
<g id="node4" class="node">
<title>n3</title>
<ellipse fill="none" stroke="black" cx="864.11" cy="-72" rx="294.97" ry="18"/>
<text xml:space="preserve" text-anchor="middle" x="864.11" y="-66.95" font-family="Times New Roman,serif" font-size="14.00">It was originally developed by Colin Laplace and was first released in 1998.</text>
</g>
<!-- n1&#45;&gt;n3 -->
<g id="edge3" class="edge">
<title>n1&#45;&gt;n3</title>
<path fill="none" stroke="black" d="M222.29,-72C291.32,-72 428.1,-72 557.62,-72"/>
<polygon fill="black" stroke="black" points="557.42,-75.5 567.42,-72 557.42,-68.5 557.42,-75.5"/>
</g>
<!-- n5 -->
<g id="node6" class="node">
<title>n5</title>
<ellipse fill="none" stroke="black" cx="864.11" cy="-18" rx="93.83" ry="18"/>
<text xml:space="preserve" text-anchor="middle" x="864.11" y="-12.95" font-family="Times New Roman,serif" font-size="14.00">It is written in Delphi.</text>
</g>
<!-- n4&#45;&gt;n5 -->
<g id="edge5" class="edge">
<title>n4&#45;&gt;n5</title>
<path fill="none" stroke="black" d="M206.22,-18C300.62,-18 598.55,-18 758.76,-18"/>
<polygon fill="black" stroke="black" points="758.54,-21.5 768.54,-18 758.53,-14.5 758.54,-21.5"/>
</g>
</g>
</svg>
